Coordinates
version=1
nRows=43
nColumns=12
inDegrees=yes

Units are S.I. units (second, meters, Newtons, ...)
Angles are in degrees

endheader
time	SC_y	SC_z	SC_x	AC_y	AC_z	AC_x	GH_y	GH_z	GH_yy	EL_x	PS_y
       0.0              -22.03          19.55           15.0          41.97          8.101          2.257         -122.9          77.68         -65.54           6.54          7.211
 0.0005097              -22.03          19.55           15.0          41.97          8.097          2.259         -122.9          77.67         -65.53          6.552          7.218
  0.001019              -22.03          19.55          15.01          41.98          8.092           2.26         -122.9          77.66         -65.53          6.565          7.226
  0.001529              -22.03          19.55          15.02          41.98          8.088          2.262         -122.9          77.65         -65.53          6.578          7.234
  0.002039              -22.03          19.55          15.02          41.98          8.083          2.264         -122.9          77.64         -65.53          6.593          7.243
  0.002548              -22.02          19.55          15.03          41.98          8.078          2.265         -122.9          77.63         -65.53          6.608          7.252
  0.003058              -22.02          19.55          15.04          41.99          8.072          2.267         -122.9          77.62         -65.52          6.624          7.262
  0.003568              -22.02          19.55          15.05          41.99          8.066          2.269         -122.9           77.6         -65.52          6.642          7.273
  0.004077              -22.02          19.55          15.06          41.99           8.06          2.272         -122.9          77.59         -65.52           6.66          7.284
  0.004587              -22.01          19.55          15.07           42.0          8.053          2.274         -122.9          77.57         -65.51          6.681          7.297
  0.005097              -22.01          19.55          15.08           42.0          8.046          2.277         -122.8          77.56         -65.51          6.702           7.31
  0.005606              -22.01          19.55          15.09          42.01          8.038           2.28         -122.8          77.54         -65.51          6.725          7.324
  0.006116              -22.01          19.55           15.1          42.01           8.03          2.283         -122.8          77.52          -65.5           6.75          7.339
  0.006626               -22.0          19.55          15.11          42.02          8.021          2.286         -122.8           77.5          -65.5          6.777          7.356
  0.007135               -22.0          19.55          15.13          42.02          8.011          2.289         -122.8          77.48         -65.49          6.806          7.374
  0.007645              -21.99          19.55          15.14          42.03            8.0          2.293         -122.8          77.45         -65.49          6.838          7.393
  0.008155              -21.99          19.55          15.16          42.04          7.988          2.297         -122.8          77.42         -65.48          6.873          7.414
  0.008664              -21.98          19.55          15.18          42.05          7.976          2.302         -122.8          77.39         -65.47           6.91          7.437
  0.009174              -21.98          19.55           15.2          42.05          7.962          2.307         -122.8          77.36         -65.47          6.951          7.462
  0.009684              -21.97          19.55          15.22          42.06          7.947          2.312         -122.8          77.33         -65.46          6.996           7.49
   0.01019              -21.97          19.55          15.25          42.07           7.93          2.318         -122.7          77.29         -65.45          7.045           7.52
    0.0107              -21.96          19.55          15.27          42.08          7.912          2.325         -122.7          77.25         -65.44          7.099          7.553
   0.01121              -21.95          19.55           15.3           42.1          7.892          2.332         -122.7           77.2         -65.43          7.159           7.59
   0.01172              -21.94          19.55          15.33          42.11          7.869           2.34         -122.7          77.15         -65.42          7.226           7.63
   0.01223              -21.93          19.55          15.37          42.12          7.844          2.349         -122.7          77.09         -65.41          7.299          7.676
   0.01274              -21.92          19.54          15.41          42.14          7.817          2.359         -122.6          77.03         -65.39          7.382          7.726
   0.01325              -21.91          19.54          15.46          42.16          7.786           2.37         -122.6          76.96         -65.38          7.474          7.782
   0.01376               -21.9          19.54          15.51          42.18          7.751          2.383         -122.6          76.87         -65.36          7.577          7.846
   0.01427              -21.88          19.54          15.57           42.2          7.711          2.397         -122.5          76.78         -65.34          7.695          7.918
   0.01478              -21.86          19.54          15.63          42.23          7.666          2.413         -122.5          76.68         -65.32          7.828          7.999
   0.01529              -21.84          19.54          15.71          42.26          7.615          2.432         -122.4          76.56         -65.29          7.979          8.092
    0.0158              -21.82          19.54          15.79           42.3          7.556          2.453         -122.4          76.43         -65.26          8.154          8.199
   0.01631              -21.79          19.53          15.89          42.34          7.488          2.477         -122.3          76.27         -65.23          8.355          8.322
   0.01682              -21.76          19.53          16.01          42.39          7.409          2.506         -122.2          76.09         -65.19          8.589          8.465
   0.01733              -21.73          19.53          16.14          42.44          7.317          2.539         -122.1          75.87         -65.14          8.862          8.633
   0.01784              -21.68          19.53           16.3          42.51          7.208          2.578         -122.0          75.62         -65.08          9.185           8.83
   0.01835              -21.63          19.52          16.49          42.59          7.079          2.625         -121.9          75.32         -65.02          9.568          9.065
   0.01886              -21.57          19.52          16.72          42.68          6.924          2.681         -121.8          74.97         -64.94          10.03          9.346
   0.01937               -21.5          19.51          16.99          42.79          6.736          2.748         -121.6          74.53         -64.85          10.58          9.686
   0.01988              -21.41           19.5          17.33          42.93          6.507           2.83         -121.4           74.0         -64.73          11.26           10.1
   0.02039               -21.3          19.49          17.74           43.1          6.225          2.932         -121.1          73.35         -64.59           12.1          10.61
    0.0209              -21.16          19.48          18.25          43.31          5.872          3.059         -120.7          72.54         -64.41          13.14          11.25
   0.02141              -20.99          19.47           18.9          43.58          5.428          3.219         -120.3          71.51         -64.18          14.46          12.06
